# xmcd
#
# Track frame offsets:
#	150
#	23432
#	43510
#	64875
#	87647
#
# Disc length: 1435 seconds
#
# Revision: 1
# Processed by: cddbd v1.5.1PL0 Copyright (c) Steve Scherf et al.
# Submitted via: CDex 1.50Beta5
#
DISCID=38059905
DTITLE=岡本麻弥 - enfant
DYEAR=1993
DGENRE=Pop
TTITLE0=Il fail jour
TTITLE1=Forever Road
TTITLE2=夏の猫
TTITLE3=losear blue
TTITLE4=永遠回帰
EXTD=
EXTT0=
EXTT1=
EXTT2=
EXTT3=
EXTT4=
PLAYORDER=
